<svg width="96" height="122" viewBox="0 0 96 122" fill="none" xmlns="http://www.w3.org/2000/svg">
<path d="M64.95 48.34L61.37 46.28L43.48 35.95L39.9 33.88L32.74 29.75L22 23.55L2 12V77.7L73.57 119.02V53.32L64.95 48.34ZM19.9 71.6L12.74 67.47V34.62L19.9 38.75V71.6ZM41.37 84L23.48 73.67V40.82L32.74 46.17L38.25 49.35L39.9 50.3L41.37 51.15V84ZM62.84 96.4L44.95 86.07V53.22L50.63 56.5L54.21 58.57L59.72 61.75L61.37 62.7L62.84 63.55V96.4Z" stroke="#A4AAB4"/>
<path d="M19.9002 38.7501V63.8901L12.7402 67.4701V34.6201L19.9002 38.7501Z" stroke="#A4AAB4"/>
<path d="M55.6796 67.6301V84.0501L52.5696 82.2601L52.0996 81.9901V65.5601L55.6796 67.6301Z" stroke="#A4AAB4"/>
<path d="M62.8402 80.47V96.4L44.9502 86.07L49.7002 83.69L52.5702 82.26L55.6802 84.05L62.8402 80.47Z" stroke="#A4AAB4"/>
<path d="M52.1002 81.99L52.5702 82.26L49.7002 83.69L44.9502 86.07V53.22L50.6302 56.5L54.2102 58.57L59.7202 61.75L52.1002 65.56V81.99Z" stroke="#A4AAB4"/>
<path d="M30.6305 53.1601V69.5901L31.1005 69.8601L28.2305 71.3001L23.4805 73.6701V40.8201L32.7405 46.1701L38.2505 49.3501L32.7405 52.1101L30.6305 53.1601Z" stroke="#A4AAB4"/>
<path d="M41.3705 68.0801V84.0001L23.4805 73.6701L28.2305 71.3001L31.1005 69.8601L34.2105 71.6601L41.3705 68.0801Z" stroke="#A4AAB4"/>
<path d="M19.9002 63.8899V71.5999L12.7402 67.4699L19.9002 63.8899Z" stroke="#A4AAB4"/>
<path d="M62.8396 63.55V64.05L61.3696 64.79L55.6796 67.63L52.0996 65.56L59.7196 61.75L61.3696 62.7L62.8396 63.55Z" stroke="#A4AAB4"/>
<path d="M62.8397 64.05V80.47L55.6797 84.05V67.63L61.3697 64.79L62.8397 64.05Z" stroke="#A4AAB4"/>
<path d="M41.3699 51.1501V51.6501L39.8999 52.3901L34.2099 55.2301L32.7399 54.3801L30.6299 53.1601L32.7399 52.1101L38.2499 49.3501L39.8999 50.3001L41.3699 51.1501Z" stroke="#A4AAB4"/>
<path d="M34.2099 55.2299V71.6599L31.0999 69.8599L30.6299 69.5899V53.1599L32.7399 54.3799L34.2099 55.2299Z" stroke="#A4AAB4"/>
<path d="M41.37 51.6499V68.0799L34.21 71.6599V55.2299L39.9 52.3899L41.37 51.6499Z" stroke="#A4AAB4"/>
<path d="M93.5703 43.3201V109.02L73.5703 119.02V53.3201L78.3203 50.9401L93.5703 43.3201Z" stroke="#A4AAB4"/>
<path d="M93.57 43.32L78.32 50.94L73.57 53.32L64.95 48.34L61.37 46.28L43.48 35.95L39.9 33.88L32.74 29.75L22 23.55L2 12L22 2L93.57 43.32Z" stroke="#A4AAB4"/>
</svg>
