<svg width="67" height="28" viewBox="0 0 67 28" fill="none" xmlns="http://www.w3.org/2000/svg">
<path d="M9 5H57.5C62.7467 5 67 9.25329 67 14.5C67 19.7467 62.7467 24 57.5 24H9V5Z" fill="#F0F7FF"/>
<path d="M32.796 18.5V10.988H30.144V9.98H36.48V10.988H33.828V18.5H32.796ZM37.2178 18.5V12.14H38.2258V18.5H37.2178ZM37.1938 11.144V9.968H38.2498V11.144H37.1938ZM42.5143 18.644C41.9143 18.644 41.3943 18.508 40.9543 18.236C40.5223 17.964 40.1863 17.58 39.9463 17.084C39.7143 16.58 39.5983 15.992 39.5983 15.32C39.5983 14.648 39.7143 14.064 39.9463 13.568C40.1863 13.072 40.5183 12.688 40.9423 12.416C41.3743 12.136 41.8823 11.996 42.4663 11.996C43.0183 11.996 43.5063 12.128 43.9303 12.392C44.3543 12.648 44.6823 13.024 44.9143 13.52C45.1543 14.016 45.2743 14.62 45.2743 15.332V15.632H40.6543C40.6943 16.312 40.8743 16.824 41.1943 17.168C41.5223 17.512 41.9623 17.684 42.5143 17.684C42.9303 17.684 43.2703 17.588 43.5343 17.396C43.8063 17.196 43.9943 16.936 44.0983 16.616L45.1783 16.7C45.0103 17.268 44.6903 17.736 44.2183 18.104C43.7543 18.464 43.1863 18.644 42.5143 18.644ZM40.6543 14.744H44.1703C44.1223 14.128 43.9423 13.676 43.6303 13.388C43.3263 13.1 42.9383 12.956 42.4663 12.956C41.9783 12.956 41.5743 13.108 41.2543 13.412C40.9423 13.708 40.7423 14.152 40.6543 14.744ZM46.6397 18.5V12.14H47.5277L47.5757 13.748L47.4797 13.712C47.5597 13.168 47.7317 12.772 47.9957 12.524C48.2677 12.268 48.6277 12.14 49.0757 12.14H49.6997V13.1H49.0877C48.7677 13.1 48.4997 13.16 48.2837 13.28C48.0757 13.392 47.9157 13.564 47.8037 13.796C47.6997 14.02 47.6477 14.308 47.6477 14.66V18.5H46.6397ZM55.4826 18.5V12.188H53.7066V11.3H54.4266C54.7386 11.3 54.9866 11.26 55.1706 11.18C55.3626 11.1 55.4986 10.964 55.5786 10.772C55.6586 10.58 55.6986 10.316 55.6986 9.98H56.5146V18.5H55.4826Z" fill="#004C99"/>
<path d="M13.6718 2.01615C14.4392 1.96965 14.5553 2.01885 15.2618 2.22568C16.3272 2.53752 17.2991 3.682 18.199 3.98953C19.5286 4.44381 20.7828 4.22657 22.072 5.15591C23.1524 5.93486 23.5047 7.05133 23.6769 8.33042C23.7643 8.81314 23.8251 9.48584 24.0593 9.92247C24.7376 11.1866 25.7371 11.9244 25.9689 13.4497C26.1536 14.6651 25.6986 15.7309 24.9637 16.6998C24.6214 17.1512 24.2127 17.6539 24.0073 18.1885C23.5711 19.5583 23.7535 20.8202 22.833 22.0848C22.113 23.0738 20.8973 23.4773 19.7304 23.649C19.2606 23.7455 18.4953 23.7968 18.0775 24.0321C16.5956 24.8666 16.1468 25.6557 14.3557 25.9558C12.4514 26.3014 11.2012 24.5239 9.7724 23.9573C8.4394 23.4287 7.28088 23.8078 5.90765 22.786C3.75028 21.1806 4.91492 18.7325 3.24043 16.933C2.65995 16.3164 2.19298 15.3432 2.04949 14.5117C1.70403 12.51 3.25276 11.325 4.03802 9.73252C4.54446 8.60811 4.23816 7.03828 5.20749 5.87432C5.87584 4.95672 7.227 4.37855 8.38037 4.30722C10.746 4.16095 11.2955 2.37827 13.6718 2.01615Z" fill="#004C99"/>
<path d="M15.1294 10.2238C15.2441 10.2135 15.2144 10.1987 15.293 10.2502C15.3458 10.4063 15.3238 12.0064 15.3242 12.2706L15.3214 17.7204L13.7244 17.7182L13.7254 15.5142L13.7221 11.9712C13.0848 12.1713 12.4459 12.3667 11.8057 12.5573C11.8307 12.2134 11.8343 11.6483 11.7861 11.3118C12.6088 11.0252 14.3374 10.4142 15.1294 10.2238Z" fill="#F0F7FF"/>
</svg>
