<svg width="67" height="28" viewBox="0 0 67 28" fill="none" xmlns="http://www.w3.org/2000/svg">
<path d="M9 5H57.5C62.7467 5 67 9.25329 67 14.5C67 19.7467 62.7467 24 57.5 24H9V5Z" fill="#F9F9F9"/>
<path d="M30.796 18.5V10.988H28.144V9.98H34.48V10.988H31.828V18.5H30.796ZM35.2178 18.5V12.14H36.2258V18.5H35.2178ZM35.1938 11.144V9.968H36.2498V11.144H35.1938ZM40.5143 18.644C39.9143 18.644 39.3943 18.508 38.9543 18.236C38.5223 17.964 38.1863 17.58 37.9463 17.084C37.7143 16.58 37.5983 15.992 37.5983 15.32C37.5983 14.648 37.7143 14.064 37.9463 13.568C38.1863 13.072 38.5183 12.688 38.9423 12.416C39.3743 12.136 39.8823 11.996 40.4663 11.996C41.0183 11.996 41.5063 12.128 41.9303 12.392C42.3543 12.648 42.6823 13.024 42.9143 13.52C43.1543 14.016 43.2743 14.62 43.2743 15.332V15.632H38.6543C38.6943 16.312 38.8743 16.824 39.1943 17.168C39.5223 17.512 39.9623 17.684 40.5143 17.684C40.9303 17.684 41.2703 17.588 41.5343 17.396C41.8063 17.196 41.9943 16.936 42.0983 16.616L43.1783 16.7C43.0103 17.268 42.6903 17.736 42.2183 18.104C41.7543 18.464 41.1863 18.644 40.5143 18.644ZM38.6543 14.744H42.1703C42.1223 14.128 41.9423 13.676 41.6303 13.388C41.3263 13.1 40.9383 12.956 40.4663 12.956C39.9783 12.956 39.5743 13.108 39.2543 13.412C38.9423 13.708 38.7423 14.152 38.6543 14.744ZM44.6397 18.5V12.14H45.5277L45.5757 13.748L45.4797 13.712C45.5597 13.168 45.7317 12.772 45.9957 12.524C46.2677 12.268 46.6277 12.14 47.0757 12.14H47.6997V13.1H47.0877C46.7677 13.1 46.4997 13.16 46.2837 13.28C46.0757 13.392 45.9157 13.564 45.8037 13.796C45.6997 14.02 45.6477 14.308 45.6477 14.66V18.5H44.6397ZM55.1986 18.692C54.5106 18.692 53.9146 18.512 53.4106 18.152C52.9066 17.792 52.5146 17.28 52.2346 16.616C51.9626 15.952 51.8266 15.164 51.8266 14.252C51.8266 13.34 51.9626 12.552 52.2346 11.888C52.5146 11.216 52.9066 10.7 53.4106 10.34C53.9146 9.972 54.5106 9.788 55.1986 9.788C55.8946 9.788 56.4946 9.972 56.9986 10.34C57.5026 10.7 57.8906 11.212 58.1626 11.876C58.4426 12.54 58.5826 13.332 58.5826 14.252C58.5826 15.164 58.4426 15.952 58.1626 16.616C57.8906 17.28 57.5026 17.792 56.9986 18.152C56.4946 18.512 55.8946 18.692 55.1986 18.692ZM55.1986 17.684C55.9346 17.684 56.5026 17.388 56.9026 16.796C57.3026 16.196 57.5026 15.348 57.5026 14.252C57.5026 13.516 57.4106 12.892 57.2266 12.38C57.0506 11.86 56.7906 11.468 56.4466 11.204C56.1106 10.932 55.6946 10.796 55.1986 10.796C54.7106 10.796 54.2946 10.932 53.9506 11.204C53.6146 11.468 53.3546 11.86 53.1706 12.38C52.9946 12.892 52.9066 13.516 52.9066 14.252C52.9066 15.348 53.1066 16.196 53.5066 16.796C53.9066 17.388 54.4706 17.684 55.1986 17.684Z" fill="#374151"/>
<path d="M13.6219 2.25572C14.4154 2.2043 14.5239 2.2506 15.2569 2.46644C16.3221 2.78012 17.2893 3.91954 18.1858 4.22855C19.4935 4.67926 20.7169 4.4648 22.0079 5.35761C23.1024 6.11455 23.4937 7.23678 23.6663 8.51754C23.7574 9.02691 23.8138 9.72773 24.0632 10.1866C24.7322 11.4174 25.6876 12.1223 25.9522 13.6004C26.1831 14.8904 25.6808 16.0192 24.8962 17.0393C24.573 17.4595 24.1873 17.9454 23.9974 18.4438C23.5884 19.785 23.7325 21.0514 22.8673 22.2704C22.3027 23.1272 21.1371 23.6772 20.1455 23.8331C18.8906 24.0303 17.9972 24.0946 16.9889 24.9805C16.2104 25.6644 15.4039 26.0173 14.3645 26.21C13.4091 26.3524 12.2911 25.9017 11.5262 25.3567C11.0148 24.9923 10.3405 24.3974 9.76134 24.209C8.37432 23.7578 7.17898 23.9747 5.89028 23.0296C4.84315 22.2616 4.48877 21.1064 4.31055 19.8676C4.21763 19.3815 4.1494 18.6595 3.91192 18.2201C3.22738 16.9537 2.25122 16.2792 2.03656 14.7374C1.85334 13.4217 2.37828 12.368 3.17427 11.3336C3.4855 10.9292 3.83281 10.4808 4.01206 9.99994C4.47655 8.63816 4.263 7.36244 5.1899 6.12074C5.92422 5.13704 7.0649 4.72796 8.24354 4.56233C8.70457 4.49751 9.4723 4.39677 9.87288 4.19438C11.4675 3.38873 11.7036 2.5608 13.6219 2.25572Z" fill="#374151"/>
<path d="M13.5472 10.5107C14.3298 10.4655 15.023 10.5118 15.6994 10.9721C17.5504 12.2319 17.5574 15.9337 15.8973 17.3422C15.4754 17.7002 14.9796 17.8557 14.4453 17.9531C12.2501 18.1061 11.0837 16.8412 10.9137 14.7102C10.7559 12.7323 11.4149 10.8813 13.5472 10.5107Z" fill="#F9F9F9"/>
<path d="M13.9528 11.9796C15.5293 12.0297 15.4802 15.2703 14.6915 16.1335C14.4959 16.3475 14.3803 16.3878 14.1109 16.4688C13.3439 16.4425 12.9792 15.9208 12.8648 15.2038C12.7013 14.1796 12.6254 12.2345 13.9528 11.9796Z" fill="#374151"/>
</svg>
