<svg width="67" height="28" viewBox="0 0 67 28" fill="none" xmlns="http://www.w3.org/2000/svg">
<path d="M9 5H57.5C62.7467 5 67 9.25329 67 14.5C67 19.7467 62.7467 24 57.5 24H9V5Z" fill="#F0FDFA"/>
<path d="M31.296 18.5V10.988H28.644V9.98H34.98V10.988H32.328V18.5H31.296ZM35.7178 18.5V12.14H36.7258V18.5H35.7178ZM35.6938 11.144V9.968H36.7498V11.144H35.6938ZM41.0143 18.644C40.4143 18.644 39.8943 18.508 39.4543 18.236C39.0223 17.964 38.6863 17.58 38.4463 17.084C38.2143 16.58 38.0983 15.992 38.0983 15.32C38.0983 14.648 38.2143 14.064 38.4463 13.568C38.6863 13.072 39.0183 12.688 39.4423 12.416C39.8743 12.136 40.3823 11.996 40.9663 11.996C41.5183 11.996 42.0063 12.128 42.4303 12.392C42.8543 12.648 43.1823 13.024 43.4143 13.52C43.6543 14.016 43.7743 14.62 43.7743 15.332V15.632H39.1543C39.1943 16.312 39.3743 16.824 39.6943 17.168C40.0223 17.512 40.4623 17.684 41.0143 17.684C41.4303 17.684 41.7703 17.588 42.0343 17.396C42.3063 17.196 42.4943 16.936 42.5983 16.616L43.6783 16.7C43.5103 17.268 43.1903 17.736 42.7183 18.104C42.2543 18.464 41.6863 18.644 41.0143 18.644ZM39.1543 14.744H42.6703C42.6223 14.128 42.4423 13.676 42.1303 13.388C41.8263 13.1 41.4383 12.956 40.9663 12.956C40.4783 12.956 40.0743 13.108 39.7543 13.412C39.4423 13.708 39.2423 14.152 39.1543 14.744ZM45.1397 18.5V12.14H46.0277L46.0757 13.748L45.9797 13.712C46.0597 13.168 46.2317 12.772 46.4957 12.524C46.7677 12.268 47.1277 12.14 47.5757 12.14H48.1997V13.1H47.5877C47.2677 13.1 46.9997 13.16 46.7837 13.28C46.5757 13.392 46.4157 13.564 46.3037 13.796C46.1997 14.02 46.1477 14.308 46.1477 14.66V18.5H45.1397ZM52.4466 18.5C52.4466 17.9 52.5386 17.36 52.7226 16.88C52.9146 16.392 53.2466 15.928 53.7186 15.488C54.1986 15.048 54.8626 14.604 55.7106 14.156C56.1026 13.948 56.4186 13.756 56.6586 13.58C56.8986 13.404 57.0746 13.216 57.1866 13.016C57.2986 12.816 57.3546 12.572 57.3546 12.284C57.3546 11.988 57.2906 11.732 57.1626 11.516C57.0346 11.292 56.8426 11.116 56.5866 10.988C56.3386 10.86 56.0266 10.796 55.6506 10.796C55.0506 10.796 54.5746 10.952 54.2226 11.264C53.8786 11.576 53.6626 12.02 53.5746 12.596L52.4946 12.524C52.5906 11.692 52.9106 11.028 53.4546 10.532C53.9986 10.036 54.7306 9.788 55.6506 9.788C56.2346 9.788 56.7346 9.892 57.1506 10.1C57.5666 10.308 57.8826 10.6 58.0986 10.976C58.3226 11.344 58.4346 11.772 58.4346 12.26C58.4346 12.692 58.3626 13.068 58.2186 13.388C58.0746 13.7 57.8306 13.992 57.4866 14.264C57.1506 14.536 56.6866 14.828 56.0946 15.14C55.3266 15.548 54.7426 15.96 54.3426 16.376C53.9506 16.792 53.7426 17.164 53.7186 17.492H58.4346V18.5H52.4466Z" fill="#0F766E"/>
<path d="M13.6052 2.02663C14.6032 1.88894 15.6552 2.3023 16.453 2.87051C16.9282 3.20893 17.6922 3.84263 18.2354 4.01589C19.5822 4.44557 20.7231 4.25861 21.9914 5.11507C23.1091 5.86979 23.5037 7.03899 23.673 8.32946C23.7423 8.85785 23.8386 9.47393 24.064 9.95667C24.2493 10.3533 24.5323 10.7241 24.8042 11.0671C25.3643 11.7737 25.7702 12.4909 25.9542 13.3796C26.2054 14.5925 25.6684 15.7933 24.9472 16.7415C24.6062 17.2107 24.1971 17.6786 23.9968 18.2282C23.8323 18.6795 23.771 19.1425 23.7081 19.6138C23.5922 20.4796 23.3709 21.3033 22.8789 22.0358C22.2525 22.9683 21.1275 23.4237 20.0601 23.6176C19.3979 23.7378 18.6853 23.7762 18.0633 24.0557C17.6894 24.2246 17.3063 24.4989 16.988 24.7522C16.0619 25.4892 15.5237 25.7607 14.3714 25.9798C13.2317 26.1081 12.1436 25.6088 11.2649 24.9326C10.8448 24.6094 10.2339 24.1274 9.74737 23.9715C8.36014 23.527 7.19145 23.742 5.90619 22.8103C4.79927 22.0078 4.48331 20.8279 4.29437 19.5327C4.2063 19.071 4.13167 18.4028 3.90753 17.9889C3.23921 16.7549 2.25296 16.0375 2.03818 14.5424C1.87052 13.3751 2.26947 12.3566 2.95211 11.4048C3.3319 10.8753 3.79424 10.3589 4.02061 9.73908C4.47399 8.40074 4.27159 7.12449 5.17671 5.90901C5.90738 4.9278 7.054 4.48804 8.233 4.33629C8.68467 4.27814 9.49309 4.15617 9.89673 3.95202C11.4481 3.16745 11.7381 2.32009 13.6052 2.02663Z" fill="#042F2E"/>
<path d="M13.4624 10.2849C14.9375 10.119 16.7411 10.7618 16.6853 12.5396C16.6475 13.7435 15.7927 14.4507 14.9597 15.1965C14.534 15.5711 14.114 15.9523 13.7002 16.34L16.8987 16.3411L16.902 17.7377C15.6174 17.7117 14.2477 17.7361 12.9562 17.7361L11.2605 17.7391L11.2587 16.6001C11.8945 15.9835 12.542 15.379 13.2008 14.787C13.6552 14.3759 14.1495 13.9724 14.5464 13.5062C15.3856 12.5205 14.7683 11.5451 13.5229 11.7156C12.9422 11.7951 12.6104 12.0169 12.2613 12.4707C11.8698 12.2859 11.3675 11.951 10.95 11.7307C11.0135 11.6395 11.079 11.5497 11.1466 11.4615C11.7437 10.6918 12.5276 10.4047 13.4624 10.2849Z" fill="#F0FDFA"/>
</svg>
