<svg width="28" height="28" viewBox="0 0 28 28" fill="none" xmlns="http://www.w3.org/2000/svg">
<path d="M13.7084 2.03028C14.519 1.86399 15.8394 2.41548 16.483 2.88211C17.0119 3.24005 17.6114 3.84593 18.2262 4.03544C19.6156 4.46375 20.8969 4.28196 22.1449 5.23229C22.9594 5.80454 23.5038 6.98913 23.6294 7.9575C23.7874 9.17507 23.8583 9.96057 24.6985 10.9235C25.326 11.6427 25.7861 12.5186 25.9543 13.4801C26.1698 14.7116 25.5932 15.9218 24.857 16.8831C24.5789 17.2823 24.1184 17.7678 23.9806 18.2415C23.5813 19.6144 23.713 20.9291 22.7881 22.1522C22.2369 22.9338 20.9483 23.5262 20.0202 23.6238C18.6311 23.77 17.94 23.9175 16.8618 24.8597C16.1792 25.4562 15.2094 25.8279 14.2808 25.9746C13.6932 26.0724 13.1883 25.8664 12.652 25.7205C11.5788 25.4284 10.7493 24.3012 9.77915 23.9705C8.35642 23.5322 7.17469 23.7325 5.89107 22.7984C4.1079 21.5006 4.62373 19.743 3.94915 18.0927C3.4357 16.8366 2.227 16.2074 2.03079 14.4979C1.77901 12.3043 3.12817 11.509 4.01092 9.76619C4.17205 9.44575 4.22535 8.81195 4.28895 8.44957C4.48148 6.27218 5.70919 4.69223 7.93203 4.38377C9.23315 4.2032 9.98024 4.14715 10.9951 3.25022C11.7767 2.55944 12.6719 2.19152 13.7084 2.03028ZM11.0644 12.5133C11.6996 12.5408 12.3347 12.4929 12.9601 12.5417C13.3888 11.2765 15.0356 11.6446 14.8134 12.7561C14.7026 13.3109 13.5559 13.3093 13.0803 13.2698C13.1033 13.628 13.1227 14.3023 13.0987 14.6635C13.9266 14.591 15.4818 14.6916 14.743 15.9347C14.0593 16.3828 13.2363 16.3285 12.9405 15.478C12.3155 15.464 11.6903 15.4607 11.0651 15.4682C10.8113 15.6203 11.2313 16.4703 11.3644 16.6515C12.3756 18.0284 14.8063 18.0834 16.1303 17.1603C16.958 16.5834 17.3199 15.541 16.7263 14.6669C16.3857 14.166 15.7867 13.9965 15.2185 13.9679C15.8079 13.7236 16.4059 13.4856 16.6511 12.8516C17.0572 11.8018 16.1611 10.7792 15.2127 10.4558C14.7878 10.3109 14.1967 10.2057 13.757 10.2597C12.9121 10.3549 12.1947 10.5225 11.6149 11.2225C11.2483 11.6653 11.2215 12.0077 11.0644 12.5133Z" fill="#A27D00"/>
</svg>
