<svg width="25" height="24" viewBox="0 0 25 24" fill="none" xmlns="http://www.w3.org/2000/svg">
<path d="M11.6718 0.0161471C12.4392 -0.0303517 12.5553 0.0188528 13.2618 0.225676C14.3272 0.537524 15.2991 1.682 16.199 1.98953C17.5286 2.44381 18.7828 2.22657 20.072 3.15591C21.1524 3.93486 21.5047 5.05133 21.6769 6.33042C21.7643 6.81314 21.8251 7.48584 22.0593 7.92247C22.7376 9.18656 23.7371 9.9244 23.9689 11.4497C24.1536 12.6651 23.6986 13.7309 22.9637 14.6998C22.6214 15.1512 22.2127 15.6539 22.0073 16.1885C21.5711 17.5583 21.7535 18.8202 20.833 20.0848C20.113 21.0738 18.8973 21.4773 17.7304 21.649C17.2606 21.7455 16.4953 21.7968 16.0775 22.0321C14.5956 22.8666 14.1468 23.6557 12.3557 23.9558C10.4514 24.3014 9.2012 22.5239 7.7724 21.9573C6.4394 21.4287 5.28088 21.8078 3.90765 20.786C1.75028 19.1806 2.91492 16.7325 1.24043 14.933C0.659954 14.3164 0.192982 13.3432 0.0494908 12.5117C-0.295968 10.51 1.25276 9.32497 2.03802 7.73252C2.54446 6.60811 2.23816 5.03828 3.20749 3.87432C3.87584 2.95672 5.227 2.37855 6.38037 2.30722C8.74601 2.16095 9.29554 0.378268 11.6718 0.0161471Z" fill="#004C99"/>
<path d="M13.1294 8.22381C13.2441 8.21349 13.2144 8.19874 13.293 8.25019C13.3458 8.40634 13.3238 10.0064 13.3242 10.2706L13.3214 15.7204L11.7244 15.7182L11.7254 13.5142L11.7221 9.97118C11.0848 10.1713 10.4459 10.3667 9.80569 10.5573C9.83072 10.2134 9.83425 9.64829 9.78613 9.31176C10.6088 9.02517 12.3374 8.41423 13.1294 8.22381Z" fill="#F0F7FF"/>
</svg>
