<svg width="67" height="28" viewBox="0 0 67 28" fill="none" xmlns="http://www.w3.org/2000/svg">
<path d="M9 5H57.5C62.7467 5 67 9.25329 67 14.5C67 19.7467 62.7467 24 57.5 24H9V5Z" fill="#FFFAEB"/>
<path d="M31.296 18.5V10.988H28.644V9.98H34.98V10.988H32.328V18.5H31.296ZM35.7178 18.5V12.14H36.7258V18.5H35.7178ZM35.6938 11.144V9.968H36.7498V11.144H35.6938ZM41.0143 18.644C40.4143 18.644 39.8943 18.508 39.4543 18.236C39.0223 17.964 38.6863 17.58 38.4463 17.084C38.2143 16.58 38.0983 15.992 38.0983 15.32C38.0983 14.648 38.2143 14.064 38.4463 13.568C38.6863 13.072 39.0183 12.688 39.4423 12.416C39.8743 12.136 40.3823 11.996 40.9663 11.996C41.5183 11.996 42.0063 12.128 42.4303 12.392C42.8543 12.648 43.1823 13.024 43.4143 13.52C43.6543 14.016 43.7743 14.62 43.7743 15.332V15.632H39.1543C39.1943 16.312 39.3743 16.824 39.6943 17.168C40.0223 17.512 40.4623 17.684 41.0143 17.684C41.4303 17.684 41.7703 17.588 42.0343 17.396C42.3063 17.196 42.4943 16.936 42.5983 16.616L43.6783 16.7C43.5103 17.268 43.1903 17.736 42.7183 18.104C42.2543 18.464 41.6863 18.644 41.0143 18.644ZM39.1543 14.744H42.6703C42.6223 14.128 42.4423 13.676 42.1303 13.388C41.8263 13.1 41.4383 12.956 40.9663 12.956C40.4783 12.956 40.0743 13.108 39.7543 13.412C39.4423 13.708 39.2423 14.152 39.1543 14.744ZM45.1397 18.5V12.14H46.0277L46.0757 13.748L45.9797 13.712C46.0597 13.168 46.2317 12.772 46.4957 12.524C46.7677 12.268 47.1277 12.14 47.5757 12.14H48.1997V13.1H47.5877C47.2677 13.1 46.9997 13.16 46.7837 13.28C46.5757 13.392 46.4157 13.564 46.3037 13.796C46.1997 14.02 46.1477 14.308 46.1477 14.66V18.5H45.1397ZM55.3386 18.692C54.3946 18.692 53.6666 18.472 53.1546 18.032C52.6426 17.584 52.3666 17.008 52.3266 16.304L53.3946 16.232C53.4426 16.752 53.6426 17.124 53.9946 17.348C54.3546 17.572 54.8026 17.684 55.3386 17.684C55.7066 17.684 56.0466 17.636 56.3586 17.54C56.6706 17.436 56.9226 17.272 57.1146 17.048C57.3066 16.816 57.4026 16.508 57.4026 16.124C57.4026 15.556 57.2146 15.14 56.8386 14.876C56.4626 14.612 55.9666 14.48 55.3506 14.48H54.6786V13.472H55.3506C55.8546 13.472 56.2706 13.372 56.5986 13.172C56.9346 12.972 57.1026 12.628 57.1026 12.14C57.1026 11.7 56.9586 11.368 56.6706 11.144C56.3906 10.912 55.9666 10.796 55.3986 10.796C54.8386 10.796 54.4146 10.904 54.1266 11.12C53.8466 11.336 53.6786 11.632 53.6226 12.008L52.5426 11.936C52.6226 11.296 52.9066 10.78 53.3946 10.388C53.8826 9.988 54.5506 9.788 55.3986 9.788C55.9746 9.788 56.4706 9.884 56.8866 10.076C57.3026 10.26 57.6226 10.524 57.8466 10.868C58.0706 11.212 58.1826 11.62 58.1826 12.092C58.1826 12.62 58.0146 13.048 57.6786 13.376C57.3506 13.696 56.8626 13.916 56.2146 14.036V13.82C56.9106 13.9 57.4626 14.148 57.8706 14.564C58.2786 14.98 58.4826 15.5 58.4826 16.124C58.4826 16.668 58.3466 17.132 58.0746 17.516C57.8106 17.9 57.4426 18.192 56.9706 18.392C56.4986 18.592 55.9546 18.692 55.3386 18.692Z" fill="#A27D00"/>
<path d="M13.7084 2.03028C14.519 1.86399 15.8394 2.41548 16.483 2.88211C17.0119 3.24005 17.6114 3.84593 18.2262 4.03544C19.6156 4.46375 20.8969 4.28196 22.1449 5.23229C22.9594 5.80454 23.5038 6.98913 23.6294 7.9575C23.7874 9.17507 23.8583 9.96057 24.6985 10.9235C25.326 11.6427 25.7861 12.5186 25.9543 13.4801C26.1698 14.7116 25.5932 15.9218 24.857 16.8831C24.5789 17.2823 24.1184 17.7678 23.9806 18.2415C23.5813 19.6144 23.713 20.9291 22.7881 22.1522C22.2369 22.9338 20.9483 23.5262 20.0202 23.6238C18.6311 23.77 17.94 23.9175 16.8618 24.8597C16.1792 25.4562 15.2094 25.8279 14.2808 25.9746C13.6932 26.0724 13.1883 25.8664 12.652 25.7205C11.5788 25.4284 10.7493 24.3012 9.77915 23.9705C8.35642 23.5322 7.17469 23.7325 5.89107 22.7984C4.1079 21.5006 4.62373 19.743 3.94915 18.0927C3.4357 16.8366 2.227 16.2074 2.03079 14.4979C1.77901 12.3043 3.12817 11.509 4.01092 9.76619C4.17205 9.44575 4.22535 8.81195 4.28895 8.44957C4.48148 6.27218 5.70919 4.69223 7.93203 4.38377C9.23315 4.2032 9.98024 4.14715 10.9951 3.25022C11.7767 2.55944 12.6719 2.19152 13.7084 2.03028ZM11.0644 12.5133C11.6996 12.5408 12.3347 12.4929 12.9601 12.5417C13.3888 11.2765 15.0356 11.6446 14.8134 12.7561C14.7026 13.3109 13.5559 13.3093 13.0803 13.2698C13.1033 13.628 13.1227 14.3023 13.0987 14.6635C13.9266 14.591 15.4818 14.6916 14.743 15.9347C14.0593 16.3828 13.2363 16.3285 12.9405 15.478C12.3155 15.464 11.6903 15.4607 11.0651 15.4682C10.8113 15.6203 11.2313 16.4703 11.3644 16.6515C12.3756 18.0284 14.8063 18.0834 16.1303 17.1603C16.958 16.5834 17.3199 15.541 16.7263 14.6669C16.3857 14.166 15.7867 13.9965 15.2185 13.9679C15.8079 13.7236 16.4059 13.4856 16.6511 12.8516C17.0572 11.8018 16.1611 10.7792 15.2127 10.4558C14.7878 10.3109 14.1967 10.2057 13.757 10.2597C12.9121 10.3549 12.1947 10.5225 11.6149 11.2225C11.2483 11.6653 11.2215 12.0077 11.0644 12.5133Z" fill="#A27D00"/>
</svg>
