<svg width="28" height="28" viewBox="0 0 28 28" fill="none" xmlns="http://www.w3.org/2000/svg">
<path d="M13.6052 2.02663C14.6032 1.88894 15.6552 2.3023 16.453 2.87051C16.9282 3.20893 17.6922 3.84263 18.2354 4.01589C19.5822 4.44557 20.7231 4.25861 21.9914 5.11507C23.1091 5.86979 23.5037 7.03899 23.673 8.32946C23.7423 8.85785 23.8386 9.47393 24.064 9.95667C24.2493 10.3533 24.5323 10.7241 24.8042 11.0671C25.3643 11.7737 25.7702 12.4909 25.9542 13.3796C26.2054 14.5925 25.6684 15.7933 24.9472 16.7415C24.6062 17.2107 24.1971 17.6786 23.9968 18.2282C23.8323 18.6795 23.771 19.1425 23.7081 19.6138C23.5922 20.4796 23.3709 21.3033 22.8789 22.0358C22.2525 22.9683 21.1275 23.4237 20.0601 23.6176C19.3979 23.7378 18.6853 23.7762 18.0633 24.0557C17.6894 24.2246 17.3063 24.4989 16.988 24.7522C16.0619 25.4892 15.5237 25.7607 14.3714 25.9798C13.2317 26.1081 12.1436 25.6088 11.2649 24.9326C10.8448 24.6094 10.2339 24.1274 9.74737 23.9715C8.36014 23.527 7.19145 23.742 5.90619 22.8103C4.79927 22.0078 4.48331 20.8279 4.29437 19.5327C4.2063 19.071 4.13167 18.4028 3.90753 17.9889C3.23921 16.7549 2.25296 16.0375 2.03818 14.5424C1.87052 13.3751 2.26947 12.3566 2.95211 11.4048C3.3319 10.8753 3.79424 10.3589 4.02061 9.73908C4.47399 8.40074 4.27159 7.12449 5.17671 5.90901C5.90738 4.9278 7.054 4.48804 8.233 4.33629C8.68467 4.27814 9.49309 4.15617 9.89673 3.95202C11.4481 3.16745 11.7381 2.32009 13.6052 2.02663Z" fill="#042F2E"/>
<path d="M13.4624 10.2849C14.9375 10.119 16.7411 10.7618 16.6853 12.5396C16.6475 13.7435 15.7927 14.4507 14.9597 15.1965C14.534 15.5711 14.114 15.9523 13.7002 16.34L16.8987 16.3411L16.902 17.7377C15.6174 17.7117 14.2477 17.7361 12.9562 17.7361L11.2605 17.7391L11.2587 16.6001C11.8945 15.9835 12.542 15.379 13.2008 14.787C13.6552 14.3759 14.1495 13.9724 14.5464 13.5062C15.3856 12.5205 14.7683 11.5451 13.5229 11.7156C12.9422 11.7951 12.6104 12.0169 12.2613 12.4707C11.8698 12.2859 11.3675 11.951 10.95 11.7307C11.0135 11.6395 11.079 11.5497 11.1466 11.4615C11.7437 10.6918 12.5276 10.4047 13.4624 10.2849Z" fill="#F0FDFA"/>
</svg>
