<svg width="24" height="24" viewBox="0 0 24 24" fill="none" xmlns="http://www.w3.org/2000/svg">
<path d="M11.6219 0.0191431C12.4154 -0.0322748 12.5239 0.0140267 13.2569 0.229863C14.3221 0.54355 15.2893 1.68297 16.1858 1.99198C17.4935 2.44269 18.7169 2.22823 20.0079 3.12104C21.1024 3.87797 21.4937 5.0002 21.6663 6.28097C21.7574 6.79034 21.8138 7.49116 22.0632 7.95C22.7322 9.18087 23.6876 9.88569 23.9522 11.3638C24.1831 12.6539 23.6808 13.7826 22.8962 14.8027C22.573 15.223 22.1873 15.7088 21.9974 16.2072C21.5884 17.5484 21.7325 18.8149 20.8673 20.0339C20.3027 20.8906 19.1371 21.4406 18.1455 21.5965C16.8906 21.7937 15.9972 21.858 14.9889 22.744C14.2104 23.4279 13.4039 23.7807 12.3645 23.9734C11.4091 24.1158 10.2911 23.6651 9.5262 23.1201C9.01476 22.7557 8.34046 22.1608 7.76134 21.9725C6.37432 21.5213 5.17898 21.7381 3.89028 20.793C2.84315 20.0251 2.48877 18.8698 2.31055 17.631C2.21763 17.1449 2.1494 16.423 1.91192 15.9836C1.22738 14.7171 0.251219 14.0427 0.0365615 12.5008C-0.14666 11.1851 0.378276 10.1314 1.17427 9.09704C1.4855 8.69261 1.83281 8.2442 2.01206 7.76337C2.47655 6.40159 2.263 5.12587 3.1899 3.88417C3.92422 2.90046 5.0649 2.49139 6.24354 2.32575C6.70457 2.26094 7.4723 2.1602 7.87288 1.9578C9.46753 1.15216 9.70362 0.324225 11.6219 0.0191431Z" fill="#374151"/>
<path d="M11.5472 8.27414C12.3298 8.22889 13.023 8.27521 13.6994 8.73553C15.5504 9.99529 15.5574 13.6971 13.8973 15.1057C13.4754 15.4637 12.9796 15.6191 12.4453 15.7165C10.2501 15.8696 9.08366 14.6046 8.91366 12.4737C8.75588 10.4957 9.41493 8.64471 11.5472 8.27414Z" fill="#F9F9F9"/>
<path d="M11.9528 9.74304C13.5293 9.79313 13.4802 13.0337 12.6915 13.8969C12.4959 14.1109 12.3803 14.1512 12.1109 14.2322C11.3439 14.206 10.9792 13.6842 10.8648 12.9673C10.7013 11.943 10.6254 9.99791 11.9528 9.74304Z" fill="#374151"/>
</svg>
